# This file uses centimeters as units for non-parametric coordinates.

mtllib Sci-Fi-Floor-1-OBJ.mtl
g default
v -11.458750 0.000000 1.887949
v 2.405490 0.000000 1.887949
v 2.405490 0.000000 -13.291882
v -11.458750 0.000000 -13.291882
v -12.116546 0.000000 -12.634087
v -12.116546 0.000000 1.230154
v 3.063286 0.000000 1.230154
v 3.063286 0.000000 -12.634087
v -11.458750 0.270823 1.230154
v -11.458750 0.270823 -12.634087
v 2.405490 0.270823 1.230154
v 2.405490 0.270823 -12.634087
v -12.116546 0.000000 -8.012671
v -12.116546 0.000000 -3.391263
v 3.063286 0.000000 -3.391263
v 3.063286 0.000000 -8.012671
v -11.458750 0.270823 -3.391263
v -11.458750 0.270823 -8.012671
v 2.405490 0.270823 -3.391263
v 2.405490 0.270823 -8.012671
v -6.837334 0.000000 1.887949
v -2.215926 0.000000 1.887949
v -2.215926 0.000000 -13.291882
v -6.837334 0.000000 -13.291882
v -2.215926 0.270823 1.230154
v -6.837334 0.270823 1.230154
v -2.215926 0.270823 -12.634087
v -6.837334 0.270823 -12.634087
v -2.215926 0.270823 -3.391263
v -6.837334 0.270823 -3.391263
v -2.215926 0.270823 -8.012671
v -6.837334 0.270823 -8.012671
v -6.644778 0.000000 1.887949
v -2.408482 0.000000 1.887949
v -2.408482 0.000000 -13.291882
v -6.644778 0.000000 -13.291882
v -2.408482 0.108498 1.230154
v -6.644778 0.108498 1.230154
v -2.408482 0.108498 -12.634087
v -6.644778 0.108498 -12.634087
v -2.408482 0.108498 -3.391263
v -6.644778 0.108498 -3.391263
v -2.408482 0.108498 -8.012671
v -6.644778 0.108498 -8.012671
v -12.116546 0.000000 -7.820115
v -12.116546 0.000000 -3.583819
v 3.063286 0.000000 -3.583819
v 3.063286 0.000000 -7.820115
v -11.458750 0.108498 -3.583819
v -11.458750 0.108498 -7.820115
v 2.405490 0.108498 -3.583819
v 2.405490 0.108498 -7.820115
v -6.837334 0.108498 -3.583819
v -6.837334 0.108498 -7.820115
v -2.215926 0.108498 -3.583819
v -2.215926 0.108498 -7.820115
v -6.644778 0.108498 -3.583819
v -6.644778 0.108498 -7.820115
v -2.408482 0.108498 -3.583819
v -2.408482 0.108498 -7.820115
vt 0.052113 0.052113
vt 0.009613 0.052113
vt 0.947887 0.052113
vt 0.947887 0.009613
vt 0.052113 0.009613
vt 0.350704 0.009613
vt 0.009613 0.947887
vt 0.052113 0.947887
vt 0.009613 0.350704
vt 0.947887 0.990387
vt 0.947887 0.947887
vt 0.947887 0.350704
vt 0.990387 0.052113
vt 0.052113 0.990387
vt 0.350704 0.947887
vt 0.052113 0.350704
vt 0.350704 0.052113
vt 0.009613 0.649296
vt 0.052113 0.649296
vt 0.009613 0.363146
vt 0.947887 0.649296
vt 0.990387 0.649296
vt 0.990387 0.363146
vt 0.947887 0.363146
vt 0.350704 0.649296
vt 0.052113 0.363146
vt 0.350704 0.350704
vt 0.649296 0.052113
vt 0.649296 0.009613
vt 0.363146 0.009613
vt 0.649296 0.990387
vt 0.649296 0.947887
vt 0.363146 0.990387
vt 0.350704 0.990387
vt 0.649296 0.350704
vt 0.363146 0.052113
vt 0.649296 0.649296
vt 0.363146 0.649296
vt 0.649296 0.363146
vt 0.363146 0.363146
vt 0.350704 0.363146
vt 0.636854 0.052113
vt 0.636854 0.009613
vt 0.636854 0.990387
vt 0.636854 0.947887
vt 0.363146 0.947887
vt 0.636854 0.350704
vt 0.363146 0.350704
vt 0.636854 0.649296
vt 0.636854 0.363146
vt 0.009613 0.636854
vt 0.947887 0.636854
vt 0.990387 0.636854
vt 0.052113 0.636854
vt 0.350704 0.636854
vt 0.649296 0.636854
vt 0.363146 0.636854
vt 0.636854 0.636854
vt 0.990387 0.947887
vt 0.990387 0.350704
vn 0.380699 0.924699 0.000000
vn 0.380699 0.924699 0.000000
vn 0.000000 0.924699 -0.380699
vn 0.000000 0.924699 -0.380699
vn 0.000000 0.924699 -0.380699
vn -0.380699 0.924699 0.000000
vn 0.000000 0.924699 -0.380699
vn 0.000000 0.924699 -0.380699
vn 0.000000 0.924699 -0.380699
vn 0.000000 0.924699 -0.380699
vn 0.000000 0.924699 0.380699
vn 0.380699 0.924699 0.000000
vn 0.000000 0.924699 0.380699
vn 0.380699 0.924699 0.000000
vn 0.380699 0.924699 0.000000
vn 0.380699 0.924699 0.000000
vn 0.380699 0.924699 0.000000
vn -0.380699 0.924699 0.000000
vn 0.000000 0.924699 0.380699
vn -0.380699 0.924699 0.000000
vn -0.380699 0.924699 0.000000
vn -0.380699 0.924699 0.000000
vn -0.380699 0.924699 0.000000
vn -0.380699 0.924699 0.000000
vn 0.000000 0.924699 0.380699
vn 0.000000 0.924699 0.380699
vn 0.000000 0.924699 0.380699
vn 0.000000 0.924699 0.380699
vn 0.000000 1.000000 0.000000
vn 0.000000 1.000000 0.000000
vn 0.000000 1.000000 0.000000
vn 0.000000 1.000000 0.000000
vn 0.380699 0.924699 0.000000
vn 0.380699 0.924699 0.000000
vn 0.380699 0.924699 0.000000
vn 0.380699 0.924699 0.000000
vn 0.380699 0.924699 0.000000
vn 0.380699 0.924699 0.000000
vn 0.125095 0.758568 0.639473
vn 0.125095 0.758568 0.639473
vn -0.380699 0.924699 0.000000
vn -0.380699 0.924699 0.000000
vn -0.380699 0.924699 0.000000
vn -0.380699 0.924699 0.000000
vn -0.125095 0.758568 0.639473
vn -0.125095 0.758568 0.639473
vn -0.380699 0.924699 0.000000
vn -0.380699 0.924699 0.000000
vn 0.000000 1.000000 0.000000
vn 0.000000 1.000000 0.000000
vn 0.000000 1.000000 0.000000
vn 0.000000 1.000000 0.000000
vn 0.000000 0.764602 0.644502
vn 0.000000 0.764602 0.644502
vn 0.000000 0.764602 0.644502
vn 0.000000 0.764602 0.644502
vn 0.000000 0.924699 -0.380699
vn 0.000000 0.924699 -0.380699
vn 0.000000 0.924699 -0.380699
vn 0.000000 0.924699 -0.380699
vn 0.000000 0.924699 -0.380699
vn 0.000000 0.924699 -0.380699
vn -0.639473 0.758568 -0.125095
vn -0.639473 0.758568 -0.125095
vn 0.000000 0.924699 0.380699
vn 0.000000 0.924699 0.380699
vn 0.000000 0.924699 0.380699
vn 0.000000 0.924699 0.380699
vn 0.000000 0.924699 0.380699
vn 0.000000 0.924699 0.380699
vn -0.639473 0.758568 0.125095
vn -0.639473 0.758568 0.125095
vn 0.000000 1.000000 0.000000
vn 0.000000 1.000000 0.000000
vn 0.000000 1.000000 0.000000
vn 0.000000 1.000000 0.000000
vn -0.644502 0.764602 0.000000
vn -0.644502 0.764602 0.000000
vn -0.644502 0.764602 0.000000
vn -0.644502 0.764602 0.000000
vn 0.000000 1.000000 0.000000
vn 0.000000 1.000000 0.000000
vn 0.000000 1.000000 0.000000
vn 0.000000 1.000000 0.000000
vn -0.644502 0.764602 0.000000
vn -0.644502 0.764602 0.000000
vn -0.644502 0.764602 0.000000
vn -0.644502 0.764602 0.000000
vn 0.000000 0.764602 0.644502
vn 0.000000 0.764602 0.644502
vn 0.000000 0.764602 0.644502
vn 0.000000 0.764602 0.644502
vn 0.000000 0.764602 0.644502
vn 0.000000 0.764602 0.644502
vn -0.644502 0.764602 0.000000
vn -0.644502 0.764602 0.000000
vn 0.639473 0.758568 -0.125095
vn 0.639473 0.758568 -0.125095
vn 0.000000 0.924699 -0.380699
vn 0.000000 0.924699 -0.380699
vn 0.000000 0.986676 -0.162696
vn 0.000000 0.986676 -0.162696
vn 0.000000 0.986676 -0.162696
vn 0.000000 0.986676 -0.162696
vn 0.639473 0.758568 0.125095
vn 0.639473 0.758568 0.125095
vn 0.639473 0.758568 0.125095
vn 0.000000 0.986676 0.162696
vn 0.000000 0.986676 0.162696
vn 0.000000 0.986676 0.162696
vn 0.000000 0.986676 0.162696
vn 0.644502 0.764602 0.000000
vn 0.644502 0.764602 0.000000
vn 0.644502 0.764602 0.000000
vn 0.644502 0.764602 0.000000
vn 0.000000 1.000000 0.000000
vn 0.000000 1.000000 0.000000
vn 0.000000 1.000000 0.000000
vn 0.000000 1.000000 0.000000
vn 0.644502 0.764602 0.000000
vn 0.644502 0.764602 0.000000
vn 0.644502 0.764602 0.000000
vn 0.644502 0.764602 0.000000
vn 0.000000 1.000000 0.000000
vn 0.000000 1.000000 0.000000
vn 0.000000 1.000000 0.000000
vn 0.000000 1.000000 0.000000
vn 0.644502 0.764602 0.000000
vn 0.644502 0.764602 0.000000
vn 0.644502 0.764602 0.000000
vn 0.000000 1.000000 0.000000
vn 0.000000 1.000000 0.000000
vn 0.000000 1.000000 0.000000
vn 0.000000 1.000000 0.000000
vn 0.380699 0.924699 0.000000
vn 0.380699 0.924699 0.000000
vn 0.125095 0.758568 -0.639473
vn 0.125095 0.758568 -0.639473
vn 0.162696 0.986676 0.000000
vn 0.162696 0.986676 0.000000
vn 0.162696 0.986676 0.000000
vn 0.162696 0.986676 0.000000
vn -0.125095 0.758568 -0.639473
vn -0.125095 0.758568 -0.639473
vn -0.380699 0.924699 0.000000
vn -0.380699 0.924699 0.000000
vn -0.162696 0.986676 0.000000
vn -0.162696 0.986676 0.000000
vn -0.162696 0.986676 0.000000
vn -0.162696 0.986676 0.000000
vn 0.000000 0.764602 -0.644502
vn 0.000000 0.764602 -0.644502
vn 0.000000 0.764602 -0.644502
vn 0.000000 0.764602 -0.644502
vn 0.000000 1.000000 0.000000
vn 0.000000 1.000000 0.000000
vn 0.000000 1.000000 0.000000
vn 0.000000 1.000000 0.000000
vn 0.000000 0.764602 -0.644502
vn 0.000000 0.764602 -0.644502
vn 0.000000 0.764602 -0.644502
vn 0.000000 0.764602 -0.644502
vn 0.000000 1.000000 0.000000
vn 0.000000 1.000000 0.000000
vn 0.000000 1.000000 0.000000
vn 0.000000 1.000000 0.000000
vn 0.000000 0.764602 -0.644502
vn 0.000000 0.764602 -0.644502
vn -0.644502 0.764602 0.000000
vn -0.644502 0.764602 0.000000
vn 0.000000 1.000000 0.000000
vn 0.000000 1.000000 0.000000
vn 0.000000 1.000000 0.000000
vn 0.000000 1.000000 0.000000
vn 0.644502 0.764602 0.000000
vn 0.644502 0.764602 0.000000
vn 0.000000 0.764602 -0.644502
vn 0.000000 0.764602 -0.644502
vn 0.000000 1.000000 0.000000
vn 0.000000 1.000000 0.000000
vn 0.000000 1.000000 0.000000
vn 0.000000 1.000000 0.000000
vn 0.000000 1.000000 0.000000
vn 0.000000 1.000000 0.000000
vn 0.000000 1.000000 0.000000
vn 0.000000 1.000000 0.000000
vn 0.000000 1.000000 0.000000
vn 0.000000 1.000000 0.000000
vn 0.000000 1.000000 0.000000
vn 0.000000 1.000000 0.000000
vn 0.000000 0.924699 0.380699
vn 0.000000 0.924699 0.380699
vn 0.000000 0.924699 0.380699
vn 0.000000 0.764602 0.644502
vn 0.000000 0.764602 0.644502
vn 0.000000 0.764602 0.644502
s off
g Sci_Fi_Floor_1_OBJ:Mesh
usemtl lambert5SG
f 12/1/1 8/2/2 3/5/3
f 10/3/4 4/4/5 5/13/6
f 12/1/7 3/5/8 23/6/9 27/17/10
f 2/14/11 7/7/12 11/8/13
f 16/9/14 8/2/15 12/1/16 20/16/17
f 6/59/18 1/10/19 9/11/20
f 18/12/21 10/3/22 5/13/23 13/60/24
f 2/14/25 11/8/26 25/15/27 22/34/28
f 20/16/29 12/1/30 27/17/31 31/27/32
f 7/7/33 15/18/34 19/19/35 11/8/36
f 48/20/37 16/9/38 20/16/39 52/26/40
f 9/11/41 17/21/42 14/22/43 6/59/44
f 45/23/45 50/24/46 18/12/47 13/60/48
f 11/8/49 19/19/50 29/25/51 25/15/52
f 52/26/53 20/16/54 31/27/55 56/41/56
f 28/28/57 24/29/58 4/4/59 10/3/60
f 27/17/61 23/6/62 35/30/63 39/36/64
f 21/31/65 26/32/66 9/11/67 1/10/68
f 34/33/69 22/34/70 25/15/71 37/46/72
f 32/35/73 28/28/74 10/3/75 18/12/76
f 31/27/77 27/17/78 39/36/79 43/48/80
f 26/32/81 30/37/82 17/21/83 9/11/84
f 25/15/85 29/25/86 41/38/87 37/46/88
f 54/39/89 32/35/90 18/12/91 50/24/92
f 60/40/93 56/41/94 31/27/95 43/48/96
f 28/28/97 40/42/98 36/43/99 24/29/100
f 39/36/101 35/30/102 36/43/103 40/42/104
f 33/44/105 38/45/106 26/32/107
f 34/33/108 37/46/109 38/45/110 33/44/111
f 44/47/112 40/42/113 28/28/114 32/35/115
f 43/48/116 39/36/117 40/42/118 44/47/119
f 38/45/120 42/49/121 30/37/122 26/32/123
f 37/46/124 41/38/125 42/49/126 38/45/127
f 58/50/128 44/47/129 32/35/130
f 60/40/131 43/48/132 44/47/133 58/50/134
f 19/19/135 15/18/136 47/51/137 51/54/138
f 47/51/139 48/20/140 52/26/141 51/54/142
f 17/21/143 49/52/144 46/53/145 14/22/146
f 46/53/147 49/52/148 50/24/149 45/23/150
f 19/19/151 51/54/152 55/55/153 29/25/154
f 51/54/155 52/26/156 56/41/157 55/55/158
f 30/37/159 53/56/160 49/52/161 17/21/162
f 53/56/163 54/39/164 50/24/165 49/52/166
f 29/25/167 55/55/168 59/57/169 41/38/170
f 55/55/171 56/41/172 60/40/173 59/57/174
f 30/37/175 42/49/176 57/58/177 53/56/178
f 57/58/179 58/50/180 54/39/181 53/56/182
f 41/38/183 59/57/184 57/58/185 42/49/186
f 59/57/187 60/40/188 58/50/189 57/58/190
f 21/31/191 33/44/192 26/32/193
f 54/39/194 58/50/195 32/35/196
g default
v -11.458750 0.000000 1.887949
v 2.405490 0.000000 1.887949
v 2.405490 0.000000 -13.291882
v -11.458750 0.000000 -13.291882
v -12.116546 0.000000 -12.634087
v -12.116546 0.000000 1.230154
v 3.063286 0.000000 1.230154
v 3.063286 0.000000 -12.634087
v -11.458750 0.270823 1.230154
v -11.458750 0.270823 -12.634087
v 2.405490 0.270823 1.230154
v 2.405490 0.270823 -12.634087
v -12.116546 0.000000 -8.012671
v -12.116546 0.000000 -3.391263
v 3.063286 0.000000 -3.391263
v 3.063286 0.000000 -8.012671
v -11.458750 0.270823 -3.391263
v -11.458750 0.270823 -8.012671
v 2.405490 0.270823 -3.391263
v 2.405490 0.270823 -8.012671
v -6.837334 0.000000 1.887949
v -2.215926 0.000000 1.887949
v -2.215926 0.000000 -13.291882
v -6.837334 0.000000 -13.291882
v -2.215926 0.270823 1.230154
v -6.837334 0.270823 1.230154
v -2.215926 0.270823 -12.634087
v -6.837334 0.270823 -12.634087
v -2.215926 0.270823 -3.391263
v -6.837334 0.270823 -3.391263
v -2.215926 0.270823 -8.012671
v -6.837334 0.270823 -8.012671
v -6.644778 0.000000 1.887949
v -2.408482 0.000000 1.887949
v -2.408482 0.000000 -13.291882
v -6.644778 0.000000 -13.291882
v -2.408482 0.108498 1.230154
v -6.644778 0.108498 1.230154
v -2.408482 0.108498 -12.634087
v -6.644778 0.108498 -12.634087
v -2.408482 0.108498 -3.391263
v -6.644778 0.108498 -3.391263
v -2.408482 0.108498 -8.012671
v -6.644778 0.108498 -8.012671
v -12.116546 0.000000 -7.820115
v -12.116546 0.000000 -3.583819
v 3.063286 0.000000 -3.583819
v 3.063286 0.000000 -7.820115
v -11.458750 0.108498 -3.583819
v -11.458750 0.108498 -7.820115
v 2.405490 0.108498 -3.583819
v 2.405490 0.108498 -7.820115
v -6.837334 0.108498 -3.583819
v -6.837334 0.108498 -7.820115
v -2.215926 0.108498 -3.583819
v -2.215926 0.108498 -7.820115
v -6.644778 0.108498 -3.583819
v -6.644778 0.108498 -7.820115
v -2.408482 0.108498 -3.583819
v -2.408482 0.108498 -7.820115
vt 0.052113 0.052113
vt 0.009613 0.052113
vt 0.947887 0.052113
vt 0.947887 0.009613
vt 0.052113 0.009613
vt 0.350704 0.009613
vt 0.009613 0.947887
vt 0.052113 0.947887
vt 0.009613 0.350704
vt 0.947887 0.990387
vt 0.947887 0.947887
vt 0.947887 0.350704
vt 0.990387 0.052113
vt 0.052113 0.990387
vt 0.350704 0.947887
vt 0.052113 0.350704
vt 0.350704 0.052113
vt 0.009613 0.649296
vt 0.052113 0.649296
vt 0.009613 0.363146
vt 0.947887 0.649296
vt 0.990387 0.649296
vt 0.990387 0.363146
vt 0.947887 0.363146
vt 0.350704 0.649296
vt 0.052113 0.363146
vt 0.350704 0.350704
vt 0.649296 0.052113
vt 0.649296 0.009613
vt 0.363146 0.009613
vt 0.649296 0.990387
vt 0.649296 0.947887
vt 0.363146 0.990387
vt 0.350704 0.990387
vt 0.649296 0.350704
vt 0.363146 0.052113
vt 0.649296 0.649296
vt 0.363146 0.649296
vt 0.649296 0.363146
vt 0.363146 0.363146
vt 0.350704 0.363146
vt 0.636854 0.052113
vt 0.636854 0.009613
vt 0.636854 0.990387
vt 0.636854 0.947887
vt 0.363146 0.947887
vt 0.636854 0.350704
vt 0.363146 0.350704
vt 0.636854 0.649296
vt 0.636854 0.363146
vt 0.009613 0.636854
vt 0.947887 0.636854
vt 0.990387 0.636854
vt 0.052113 0.636854
vt 0.350704 0.636854
vt 0.649296 0.636854
vt 0.363146 0.636854
vt 0.636854 0.636854
vt 0.990387 0.947887
vt 0.990387 0.350704
vn 0.380699 0.924699 0.000000
vn 0.380699 0.924699 0.000000
vn 0.000000 0.924699 -0.380699
vn 0.000000 0.924699 -0.380699
vn 0.000000 0.924699 -0.380699
vn -0.380699 0.924699 0.000000
vn 0.000000 0.924699 -0.380699
vn 0.000000 0.924699 -0.380699
vn 0.000000 0.924699 -0.380699
vn 0.000000 0.924699 -0.380699
vn 0.000000 0.924699 0.380699
vn 0.380699 0.924699 0.000000
vn 0.000000 0.924699 0.380699
vn 0.380699 0.924699 0.000000
vn 0.380699 0.924699 0.000000
vn 0.380699 0.924699 0.000000
vn 0.380699 0.924699 0.000000
vn -0.380699 0.924699 0.000000
vn 0.000000 0.924699 0.380699
vn -0.380699 0.924699 0.000000
vn -0.380699 0.924699 0.000000
vn -0.380699 0.924699 0.000000
vn -0.380699 0.924699 0.000000
vn -0.380699 0.924699 0.000000
vn 0.000000 0.924699 0.380699
vn 0.000000 0.924699 0.380699
vn 0.000000 0.924699 0.380699
vn 0.000000 0.924699 0.380699
vn 0.000000 1.000000 0.000000
vn 0.000000 1.000000 0.000000
vn 0.000000 1.000000 0.000000
vn 0.000000 1.000000 0.000000
vn 0.380699 0.924699 0.000000
vn 0.380699 0.924699 0.000000
vn 0.380699 0.924699 0.000000
vn 0.380699 0.924699 0.000000
vn 0.380699 0.924699 0.000000
vn 0.380699 0.924699 0.000000
vn 0.125095 0.758568 0.639473
vn 0.125095 0.758568 0.639473
vn -0.380699 0.924699 0.000000
vn -0.380699 0.924699 0.000000
vn -0.380699 0.924699 0.000000
vn -0.380699 0.924699 0.000000
vn -0.125095 0.758568 0.639473
vn -0.125095 0.758568 0.639473
vn -0.380699 0.924699 0.000000
vn -0.380699 0.924699 0.000000
vn 0.000000 1.000000 0.000000
vn 0.000000 1.000000 0.000000
vn 0.000000 1.000000 0.000000
vn 0.000000 1.000000 0.000000
vn 0.000000 0.764602 0.644502
vn 0.000000 0.764602 0.644502
vn 0.000000 0.764602 0.644502
vn 0.000000 0.764602 0.644502
vn 0.000000 0.924699 -0.380699
vn 0.000000 0.924699 -0.380699
vn 0.000000 0.924699 -0.380699
vn 0.000000 0.924699 -0.380699
vn 0.000000 0.924699 -0.380699
vn 0.000000 0.924699 -0.380699
vn -0.639473 0.758568 -0.125095
vn -0.639473 0.758568 -0.125095
vn 0.000000 0.924699 0.380699
vn 0.000000 0.924699 0.380699
vn 0.000000 0.924699 0.380699
vn 0.000000 0.924699 0.380699
vn 0.000000 0.924699 0.380699
vn 0.000000 0.924699 0.380699
vn -0.639473 0.758568 0.125095
vn -0.639473 0.758568 0.125095
vn 0.000000 1.000000 0.000000
vn 0.000000 1.000000 0.000000
vn 0.000000 1.000000 0.000000
vn 0.000000 1.000000 0.000000
vn -0.644502 0.764602 0.000000
vn -0.644502 0.764602 0.000000
vn -0.644502 0.764602 0.000000
vn -0.644502 0.764602 0.000000
vn 0.000000 1.000000 0.000000
vn 0.000000 1.000000 0.000000
vn 0.000000 1.000000 0.000000
vn 0.000000 1.000000 0.000000
vn -0.644502 0.764602 0.000000
vn -0.644502 0.764602 0.000000
vn -0.644502 0.764602 0.000000
vn -0.644502 0.764602 0.000000
vn 0.000000 0.764602 0.644502
vn 0.000000 0.764602 0.644502
vn 0.000000 0.764602 0.644502
vn 0.000000 0.764602 0.644502
vn 0.000000 0.764602 0.644502
vn 0.000000 0.764602 0.644502
vn -0.644502 0.764602 0.000000
vn -0.644502 0.764602 0.000000
vn 0.639473 0.758568 -0.125095
vn 0.639473 0.758568 -0.125095
vn 0.000000 0.924699 -0.380699
vn 0.000000 0.924699 -0.380699
vn 0.000000 0.986676 -0.162696
vn 0.000000 0.986676 -0.162696
vn 0.000000 0.986676 -0.162696
vn 0.000000 0.986676 -0.162696
vn 0.639473 0.758568 0.125095
vn 0.639473 0.758568 0.125095
vn 0.639473 0.758568 0.125095
vn 0.000000 0.986676 0.162696
vn 0.000000 0.986676 0.162696
vn 0.000000 0.986676 0.162696
vn 0.000000 0.986676 0.162696
vn 0.644502 0.764602 0.000000
vn 0.644502 0.764602 0.000000
vn 0.644502 0.764602 0.000000
vn 0.644502 0.764602 0.000000
vn 0.000000 1.000000 0.000000
vn 0.000000 1.000000 0.000000
vn 0.000000 1.000000 0.000000
vn 0.000000 1.000000 0.000000
vn 0.644502 0.764602 0.000000
vn 0.644502 0.764602 0.000000
vn 0.644502 0.764602 0.000000
vn 0.644502 0.764602 0.000000
vn 0.000000 1.000000 0.000000
vn 0.000000 1.000000 0.000000
vn 0.000000 1.000000 0.000000
vn 0.000000 1.000000 0.000000
vn 0.644502 0.764602 0.000000
vn 0.644502 0.764602 0.000000
vn 0.644502 0.764602 0.000000
vn 0.000000 1.000000 0.000000
vn 0.000000 1.000000 0.000000
vn 0.000000 1.000000 0.000000
vn 0.000000 1.000000 0.000000
vn 0.380699 0.924699 0.000000
vn 0.380699 0.924699 0.000000
vn 0.125095 0.758568 -0.639473
vn 0.125095 0.758568 -0.639473
vn 0.162696 0.986676 0.000000
vn 0.162696 0.986676 0.000000
vn 0.162696 0.986676 0.000000
vn 0.162696 0.986676 0.000000
vn -0.125095 0.758568 -0.639473
vn -0.125095 0.758568 -0.639473
vn -0.380699 0.924699 0.000000
vn -0.380699 0.924699 0.000000
vn -0.162696 0.986676 0.000000
vn -0.162696 0.986676 0.000000
vn -0.162696 0.986676 0.000000
vn -0.162696 0.986676 0.000000
vn 0.000000 0.764602 -0.644502
vn 0.000000 0.764602 -0.644502
vn 0.000000 0.764602 -0.644502
vn 0.000000 0.764602 -0.644502
vn 0.000000 1.000000 0.000000
vn 0.000000 1.000000 0.000000
vn 0.000000 1.000000 0.000000
vn 0.000000 1.000000 0.000000
vn 0.000000 0.764602 -0.644502
vn 0.000000 0.764602 -0.644502
vn 0.000000 0.764602 -0.644502
vn 0.000000 0.764602 -0.644502
vn 0.000000 1.000000 0.000000
vn 0.000000 1.000000 0.000000
vn 0.000000 1.000000 0.000000
vn 0.000000 1.000000 0.000000
vn 0.000000 0.764602 -0.644502
vn 0.000000 0.764602 -0.644502
vn -0.644502 0.764602 0.000000
vn -0.644502 0.764602 0.000000
vn 0.000000 1.000000 0.000000
vn 0.000000 1.000000 0.000000
vn 0.000000 1.000000 0.000000
vn 0.000000 1.000000 0.000000
vn 0.644502 0.764602 0.000000
vn 0.644502 0.764602 0.000000
vn 0.000000 0.764602 -0.644502
vn 0.000000 0.764602 -0.644502
vn 0.000000 1.000000 0.000000
vn 0.000000 1.000000 0.000000
vn 0.000000 1.000000 0.000000
vn 0.000000 1.000000 0.000000
vn 0.000000 1.000000 0.000000
vn 0.000000 1.000000 0.000000
vn 0.000000 1.000000 0.000000
vn 0.000000 1.000000 0.000000
vn 0.000000 1.000000 0.000000
vn 0.000000 1.000000 0.000000
vn 0.000000 1.000000 0.000000
vn 0.000000 1.000000 0.000000
vn 0.000000 0.924699 0.380699
vn 0.000000 0.924699 0.380699
vn 0.000000 0.924699 0.380699
vn 0.000000 0.764602 0.644502
vn 0.000000 0.764602 0.644502
vn 0.000000 0.764602 0.644502
s off
g Sci_Fi_Floor_1_OBJ:Mesh
f 72/61/197 68/62/198 63/65/199
f 70/63/200 64/64/201 65/73/202
f 72/61/203 63/65/204 83/66/205 87/77/206
f 62/74/207 67/67/208 71/68/209
f 76/69/210 68/62/211 72/61/212 80/76/213
f 66/119/214 61/70/215 69/71/216
f 78/72/217 70/63/218 65/73/219 73/120/220
f 62/74/221 71/68/222 85/75/223 82/94/224
f 80/76/225 72/61/226 87/77/227 91/87/228
f 67/67/229 75/78/230 79/79/231 71/68/232
f 108/80/233 76/69/234 80/76/235 112/86/236
f 69/71/237 77/81/238 74/82/239 66/119/240
f 105/83/241 110/84/242 78/72/243 73/120/244
f 71/68/245 79/79/246 89/85/247 85/75/248
f 112/86/249 80/76/250 91/87/251 116/101/252
f 88/88/253 84/89/254 64/64/255 70/63/256
f 87/77/257 83/66/258 95/90/259 99/96/260
f 81/91/261 86/92/262 69/71/263 61/70/264
f 94/93/265 82/94/266 85/75/267 97/106/268
f 92/95/269 88/88/270 70/63/271 78/72/272
f 91/87/273 87/77/274 99/96/275 103/108/276
f 86/92/277 90/97/278 77/81/279 69/71/280
f 85/75/281 89/85/282 101/98/283 97/106/284
f 114/99/285 92/95/286 78/72/287 110/84/288
f 120/100/289 116/101/290 91/87/291 103/108/292
f 88/88/293 100/102/294 96/103/295 84/89/296
f 99/96/297 95/90/298 96/103/299 100/102/300
f 93/104/301 98/105/302 86/92/303
f 94/93/304 97/106/305 98/105/306 93/104/307
f 104/107/308 100/102/309 88/88/310 92/95/311
f 103/108/312 99/96/313 100/102/314 104/107/315
f 98/105/316 102/109/317 90/97/318 86/92/319
f 97/106/320 101/98/321 102/109/322 98/105/323
f 118/110/324 104/107/325 92/95/326
f 120/100/327 103/108/328 104/107/329 118/110/330
f 79/79/331 75/78/332 107/111/333 111/114/334
f 107/111/335 108/80/336 112/86/337 111/114/338
f 77/81/339 109/112/340 106/113/341 74/82/342
f 106/113/343 109/112/344 110/84/345 105/83/346
f 79/79/347 111/114/348 115/115/349 89/85/350
f 111/114/351 112/86/352 116/101/353 115/115/354
f 90/97/355 113/116/356 109/112/357 77/81/358
f 113/116/359 114/99/360 110/84/361 109/112/362
f 89/85/363 115/115/364 119/117/365 101/98/366
f 115/115/367 116/101/368 120/100/369 119/117/370
f 90/97/371 102/109/372 117/118/373 113/116/374
f 117/118/375 118/110/376 114/99/377 113/116/378
f 101/98/379 119/117/380 117/118/381 102/109/382
f 119/117/383 120/100/384 118/110/385 117/118/386
f 81/91/387 93/104/388 86/92/389
f 114/99/390 118/110/391 92/95/392
